<?xml version="1.0" encoding="utf-8"?>
<!-- Generator: Adobe Illustrator 27.7.0, SVG Export Plug-In . SVG Version: 6.00 Build 0)  -->
<svg version="1.1" id="Capa_1" xmlns="http://www.w3.org/2000/svg" xmlns:xlink="http://www.w3.org/1999/xlink" x="0px" y="0px"
	 viewBox="0 0 800 800" style="enable-background:new 0 0 800 800;" xml:space="preserve">
<g>
	<path d="M312,1c-15.5,1.3-19.3,21.9-7.7,28.3c-12.9,20.6-21.9,47.7-32.2,67c-16.7,32.2-34.8,67-45.1,103c-11.6,7.7-7.7,29.6,9,28.3
		c193.2-3.9,189.3,243.4,166.2,381.3c-15.5,0-30.9-1.3-45.1-1.3c-6.4,0-12.9,0-19.3,0c-3.9,0-15.5,6.4-10.3,6.4
		c-1.3,0-2.6,1.3-3.9,1.3c-39.9,14.2,61.8,167.4,87.6,182.9c5.2,2.6,12.9,2.6,18-2.6c1.3-2.6,3.9-5.2,6.4-6.4l0,0
		c2.6,1.3,5.1,1.3,6.4,1.3c16.7-1.3,32.2-20.6,42.5-30.9c32.2-30.9,65.7-64.4,92.7-100.5c3.9-5.2,2.6-15.5-2.6-19.3
		c-1.3-1.3-2.6-1.3-2.6-2.6c-1.3-1.3-3.9-1.3-6.4-1.3c-1.3-1.3-3.9-2.6-6.4-3.9c-15.5-1.3-34.8-1.3-48.9-6.4c-1.3,0-2.6-1.3-3.9-1.3
		C595.4,439,595.4-24.7,312,1z M476.9,628.3c0,1.3,0,3.9,0,5.2c0,20.6,39.9,18,63.1,15.5c-16.7,20.6-36.1,39.9-54.1,59.2
		c-12.9,14.2-25.8,27-39.9,39.9c-5.2,3.9-9,9-14.2,12.9c-2.6,2.6-5.1,5.2-6.4,7.7c-1.3,2.6-1.3,3.9-1.3,3.9l-1.3,1.3
		c-7.7-10.3-20.6-25.8-21.9-28.3c-12.9-19.3-23.2-38.6-33.5-59.2c-3.9-7.7-11.6-33.5-21.9-52.8c1.3,0,2.6,0,3.9,0
		c16.7,2.6,33.5,5.2,51.5,5.2c11.6,0,15.5-9,15.5-16.7l0,0c61.8-144.3,28.3-417.3-163.6-426.3c14.2-28.3,28.3-55.4,43.8-83.7
		c11.6-20.6,37.4-55.4,39.9-82.4C587.7,44.8,524.6,471.2,476.9,628.3z"/>
</g>
</svg>
