<?xml version="1.0" encoding="UTF-8"?><svg id="Layer_2" xmlns="http://www.w3.org/2000/svg" viewBox="0 0 749.89 360.27"><g id="Layer_1-2"><path d="M324.25,155.78c-1,4.01.76,2.86,2.2,3.99,22.83,17.78,38.23,22.26,56.35,48.73,38.92,56.88,18.67,137.12-52.94,150.05-97.58,17.63-155.18-104.83-97.62-178.29,1.65-1.14-.99-2.96-2.01-3.23-4.79-1.28-20.16-.56-26.04-.22-61.34,3.53-113.09,30.98-169.97,47.37-4.16,1.2-10.05,3.41-14.16,3.5-17.66.41-27.02-21.35-13.98-33.4,6.37-5.88,46.9-18.96,57.84-22.78,68.49-23.89,134.56-40.18,208.2-31.91,86.28-54.14,192.46-54.72,291.32-59.21,22.76-1.03,62.7-7.35,83.74-3.09,19.94,4.04,18.84,33.98-3.52,37.74-69.98,3.81-141.97,3.49-211.4,12.94-36.94,5.03-73.63,13.57-108.03,27.82ZM281.54,184.16c-33.88,27.7-45.3,76.48-16.84,112.65,40.51,51.49,119.98,14.85,94.18-50.36-12.75-32.23-45.3-52.73-77.34-62.29Z"/><path d="M567.45.14c6.29-1,29.97,3.78,37.63,5.37,54.68,11.33,177.52,41.3,136.63,121.66-18.46,36.28-87.39,76.27-124.13,93.2-13.06,6.02-35.17,19.53-45.17,1.85-8.17-14.44.35-22.87,11.82-29.94,35.47-21.88,103.48-46.09,123.54-85.02,10.07-19.55-11.18-29.96-26.53-37.68-38.1-19.18-76.55-18.58-114.13-31.34-23.45-7.96-18.17-35.14.35-38.08Z"/></g></svg>