<?xml version="1.0" encoding="UTF-8"?>
<svg id="Layer_1" xmlns="http://www.w3.org/2000/svg" version="1.1" viewBox="0 0 420.8 96.6">
  <!-- Generator: Adobe Illustrator 29.0.0, SVG Export Plug-In . SVG Version: 2.1.0 Build 186)  -->
  <defs>
    <style>
      .st0 {
        fill: #aa9500;
      }
    </style>
  </defs>
  <path class="st0" d="M404.8,37.6c2.1-2.7-11.9-23.3-12.8-27.7-.4-1.8-.5-3.4.7-4.8,6.2-4.2,8.8,1.1,11.6,5.6,6.4,10.4,9.3,23.7,16,34.1,2.4,5.2-4.1,6.5-8,8-11.3,4.4-23.8,5.6-35,10.6l-6-3.6c-1.5-3.4,3.9-5.7,6.3-6.8,6.8-3,14.6-3.4,21.3-6.7-4.2-4.1-10.4-6.1-15.7-8.3C256.1-13.9,121,5.3,13.9,89.2c-2.6,2-6.2,4.3-7.2,7.3-5.2-.5-9.2-6.3-4.8-10.3,20-15.5,38.9-30.5,61.2-42.7,104.5-57.1,234.9-56.7,341.7-5.8h0Z"/>
</svg>