<?xml version="1.0" encoding="UTF-8"?><svg id="Layer_1" xmlns="http://www.w3.org/2000/svg" viewBox="0 0 420.8 96.55"><defs><style>.cls-1{fill:#b980e2;}</style></defs><path class="cls-1" d="M404.81,37.62c2.1-2.68-11.91-23.31-12.8-27.74-.35-1.75-.5-3.36.72-4.85,6.17-4.21,8.83,1.06,11.61,5.58,6.44,10.45,9.31,23.66,15.96,34.08,2.38,5.25-4.12,6.47-7.96,7.96-11.33,4.38-23.83,5.63-35.01,10.57l-6.05-3.62c-1.47-3.4,3.85-5.68,6.26-6.75,6.76-3,14.61-3.43,21.27-6.71-4.21-4.07-10.36-6.06-15.74-8.26C256.12-13.94,121.04,5.28,13.92,89.23c-2.6,2.04-6.25,4.27-7.21,7.32-5.22-.49-9.24-6.33-4.82-10.35,19.98-15.52,38.91-30.53,61.25-42.74,104.47-57.13,234.88-56.74,341.66-5.83Z"/></svg>