<svg xmlns="http://www.w3.org/2000/svg" xmlns:xlink="http://www.w3.org/1999/xlink" version="1.1" x="0px" y="0px" viewBox="0 0 26 32.5" style="enable-background:new 0 0 26 26;" xml:space="preserve"><rect x="12" y="20" width="2" height="1"/><rect x="14" y="19" width="1" height="1"/><rect x="11" y="19" width="1" height="1"/><rect x="15" y="18" width="1" height="1"/><rect x="10" y="18" width="1" height="1"/><rect x="16" y="17" width="1" height="1"/><rect x="9" y="17" width="1" height="1"/><rect x="7" y="15" width="1" height="1"/><rect x="8" y="16" width="1" height="1"/><rect x="15" y="14" width="3" height="1"/><rect x="8" y="14" width="3" height="1"/><rect x="14" y="6" width="1" height="8"/><rect x="12" y="5" width="2" height="1"/><rect x="11" y="6" width="1" height="8"/><rect x="17" y="16" width="1" height="1"/><rect x="18" y="15" width="1" height="1"/><text x="0" y="41" fill="#000000" font-size="5px" font-weight="bold" font-family="'Helvetica Neue', Helvetica, Arial-Unicode, Arial, Sans-serif">Created by Yafet bouchagra</text><text x="0" y="46" fill="#000000" font-size="5px" font-weight="bold" font-family="'Helvetica Neue', Helvetica, Arial-Unicode, Arial, Sans-serif">from the Noun Project</text></svg>