<svg xmlns="http://www.w3.org/2000/svg" xmlns:xlink="http://www.w3.org/1999/xlink" version="1.1" x="0px" y="0px" viewBox="0 0 100 125" enable-background="new 0 0 100 100" xml:space="preserve"><g><rect x="54" y="64" width="9" height="9"/><rect x="63" y="55" width="9" height="9"/><rect x="72" y="46" width="9" height="9"/><rect x="18" y="46" width="9" height="9"/><rect x="27" y="55" width="9" height="9"/><rect x="36" y="64" width="9" height="9"/><rect x="45" y="73" width="9" height="9"/><polygon points="54,45.667 54,55 63,55 63,45.667 63,36.667 63,28 54,28 54,36.667  "/><polygon points="45,45.667 45,36.667 45,28 36,28 36,36.667 36,45.667 36,55 45,55  "/><rect x="45" y="19" width="9" height="9"/></g></svg>